<?xml version="1.0" encoding="UTF-8" standalone="no"?>
<svg
   xmlns:dc="http://purl.org/dc/elements/1.1/"
   xmlns:cc="http://creativecommons.org/ns#"
   xmlns:rdf="http://www.w3.org/1999/02/22-rdf-syntax-ns#"
   xmlns:svg="http://www.w3.org/2000/svg"
   xmlns="http://www.w3.org/2000/svg"
   xmlns:sodipodi="http://sodipodi.sourceforge.net/DTD/sodipodi-0.dtd"
   xmlns:inkscape="http://www.inkscape.org/namespaces/inkscape"
   width="60px"
   height="60px"
   viewBox="0 0 60 60"
   version="1.1"
   id="svg10"
   sodipodi:docname="lokatie_bestemming.svg"
   inkscape:version="0.92.2 (5c3e80d, 2017-08-06)">
  <metadata
     id="metadata16">
    <rdf:RDF>
      <cc:Work
         rdf:about="">
        <dc:format>image/svg+xml</dc:format>
        <dc:type
           rdf:resource="http://purl.org/dc/dcmitype/StillImage" />
      </cc:Work>
    </rdf:RDF>
  </metadata>
  <defs
     id="defs14" />
  <sodipodi:namedview
     pagecolor="#ffffff"
     bordercolor="#666666"
     borderopacity="1"
     objecttolerance="10"
     gridtolerance="10"
     guidetolerance="10"
     inkscape:pageopacity="0"
     inkscape:pageshadow="2"
     inkscape:window-width="2560"
     inkscape:window-height="1361"
     id="namedview12"
     showgrid="false"
     inkscape:zoom="11.125147"
     inkscape:cx="53.884283"
     inkscape:cy="10.275864"
     inkscape:window-x="-9"
     inkscape:window-y="-9"
     inkscape:window-maximized="1"
     inkscape:current-layer="svg10" />
  <!-- Generator: Sketch 63.1 (92452) - https://sketch.com -->
  <title
     id="title2">Lokatie_bestemming</title>
  <desc
     id="desc4">Created with Sketch.</desc>
  <g
     id="lokatie_bestemming"
     transform="matrix(1.9915254,0,0,1.9915254,-29.618644,0)"
     style="fill:none;fill-rule:evenodd;stroke:none;stroke-width:1">
    <g
       id="place-24px"
       transform="translate(15)">
      <polygon
         id="Path"
         points="30,30 0,30 0,9.094947e-013 30,9.094947e-013 " />
      <path
         d="m 15.034625,0.68008426 c -5.8395834,0 -10.562554,4.59177664 -10.562554,10.26914974 0,7.701862 10.562554,19.071276 10.562554,19.071276 0,0 10.562553,-11.369414 10.562553,-19.071276 0,-5.6773731 -4.72297,-10.26914974 -10.562553,-10.26914974 z m 0,13.93670274 c -2.082332,0 -3.772341,-1.643064 -3.772341,-3.667553 0,-2.0244901 1.690009,-3.6675539 3.772341,-3.6675539 2.082332,0 3.772341,1.6430638 3.772341,3.6675539 0,2.024489 -1.690009,3.667553 -3.772341,3.667553 z"
         id="Shape"
         inkscape:connector-curvature="0"
         style="fill:#9c2f85;fill-rule:nonzero"
         sodipodi:nodetypes="sscsssssss" />
    </g>
  </g>
</svg>
