<?xml version="1.0" encoding="UTF-8" standalone="no"?>
<!DOCTYPE svg PUBLIC "-//W3C//DTD SVG 1.1//EN" "http://www.w3.org/Graphics/SVG/1.1/DTD/svg11.dtd">
<svg width="100%" height="100%" viewBox="0 0 256 384" version="1.1" xmlns="http://www.w3.org/2000/svg" xmlns:xlink="http://www.w3.org/1999/xlink" xml:space="preserve" xmlns:serif="http://www.serif.com/" style="fill-rule:evenodd;clip-rule:evenodd;stroke-linecap:round;stroke-miterlimit:2;">
    <g id="toeter" transform="matrix(0.968193,0,0,0.968193,5.54072,51.6133)">
        <path d="M162.126,21.131C163.349,19.95 165.077,19.449 166.743,19.793C168.408,20.137 169.797,21.282 170.452,22.851C181.889,50.229 223.765,150.475 235.603,178.813C236.283,180.44 236.081,182.301 235.068,183.744C234.055,185.187 232.374,186.01 230.613,185.924C207.08,184.774 140.543,181.524 140.543,181.524C140.543,181.524 141.333,191.333 139,197C137.013,201.825 134.306,206.863 129,208C119.667,210 89.667,211 80,209C73.764,207.71 70.978,206.396 69,201C67.167,196 66.152,178.695 66.152,178.695C66.152,178.695 59.957,178.368 57.352,178.231C56.63,178.193 55.925,178.459 55.409,178.965C52.785,181.536 44.43,189.72 39.933,194.126C39.301,194.746 38.394,194.996 37.534,194.788C36.674,194.58 35.981,193.944 35.702,193.105C32.072,182.217 21.854,151.561 18.265,140.795C17.985,139.956 18.147,139.032 18.695,138.337C19.243,137.642 20.104,137.27 20.986,137.347C26.346,137.813 35.581,138.616 38.829,138.898C39.573,138.963 40.308,138.702 40.846,138.184C50.455,128.909 139.137,43.318 162.126,21.131ZM125,181C125,181 125.378,194.328 121.238,195.61C114.238,197.776 91.333,197.333 84,195C79.508,193.571 80.695,179.238 80.695,179.238L125,181ZM161,55L174.116,90.256L61,147L161,55Z" style="fill:rgb(0,200,255);"/>
    </g>
    <g transform="matrix(1.0068,0,0,1.00528,0.3126,39.5839)">
        <path d="M249.988,25.601C249.988,13.347 240.054,3.398 227.819,3.398L25.832,3.398C13.596,3.398 3.663,13.347 3.663,25.601L3.663,227.893C3.663,240.147 13.596,250.096 25.832,250.096L227.819,250.096C240.054,250.096 249.988,240.147 249.988,227.893L249.988,25.601Z" style="fill:none;stroke:rgb(0,200,255);stroke-width:7.95px;"/>
    </g>
    <g transform="matrix(1.02645,0,0,1,-3.3248,335.415)">
        <text x="0px" y="0px" style="font-family:'ArialRoundedMTBold', 'Arial Rounded MT Bold', sans-serif;font-size:40px;fill:rgb(0,200,255);">Pub<tspan x="75.313px 86.152px " y="0px 0px ">li</tspan>c Space</text>
    </g>
</svg>
